%TF.GenerationSoftware,KiCad,Pcbnew,10.0.2*%
%TF.CreationDate,2026-05-13T22:20:26-07:00*%
%TF.ProjectId,star,73746172-2e6b-4696-9361-645f70636258,rev?*%
%TF.SameCoordinates,Original*%
%TF.FileFunction,Copper,L1,Top*%
%TF.FilePolarity,Positive*%
%FSLAX46Y46*%
G04 Gerber Fmt 4.6, Leading zero omitted, Abs format (unit mm)*
G04 Created by KiCad (PCBNEW 10.0.2) date 2026-05-13 22:20:26*
%MOMM*%
%LPD*%
G01*
G04 APERTURE LIST*
G04 Aperture macros list*
%AMRoundRect*
0 Rectangle with rounded corners*
0 $1 Rounding radius*
0 $2 $3 $4 $5 $6 $7 $8 $9 X,Y pos of 4 corners*
0 Add a 4 corners polygon primitive as box body*
4,1,4,$2,$3,$4,$5,$6,$7,$8,$9,$2,$3,0*
0 Add four circle primitives for the rounded corners*
1,1,$1+$1,$2,$3*
1,1,$1+$1,$4,$5*
1,1,$1+$1,$6,$7*
1,1,$1+$1,$8,$9*
0 Add four rect primitives between the rounded corners*
20,1,$1+$1,$2,$3,$4,$5,0*
20,1,$1+$1,$4,$5,$6,$7,0*
20,1,$1+$1,$6,$7,$8,$9,0*
20,1,$1+$1,$8,$9,$2,$3,0*%
G04 Aperture macros list end*
%TA.AperFunction,ComponentPad*%
%ADD10R,1.800000X1.800000*%
%TD*%
%TA.AperFunction,ComponentPad*%
%ADD11C,1.800000*%
%TD*%
%TA.AperFunction,ComponentPad*%
%ADD12C,1.600000*%
%TD*%
%TA.AperFunction,ComponentPad*%
%ADD13C,1.440000*%
%TD*%
%TA.AperFunction,ComponentPad*%
%ADD14C,2.000000*%
%TD*%
%TA.AperFunction,SMDPad,CuDef*%
%ADD15RoundRect,0.150000X-0.825000X-0.150000X0.825000X-0.150000X0.825000X0.150000X-0.825000X0.150000X0*%
%TD*%
%TA.AperFunction,ComponentPad*%
%ADD16RoundRect,0.250000X-0.550000X-0.550000X0.550000X-0.550000X0.550000X0.550000X-0.550000X0.550000X0*%
%TD*%
%TA.AperFunction,Conductor*%
%ADD17C,0.200000*%
%TD*%
G04 APERTURE END LIST*
D10*
%TO.P,D4,1,K_1*%
%TO.N,GND*%
X108225000Y-127500000D03*
D11*
%TO.P,D4,2,A_2*%
%TO.N,TOUT*%
X110765000Y-127500000D03*
%TD*%
D12*
%TO.P,R1,1*%
%TO.N,Net-(U1-OUT)*%
X146690000Y-91500000D03*
%TO.P,R1,2*%
%TO.N,TOUT*%
X154310000Y-91500000D03*
%TD*%
D10*
%TO.P,D2,1,K_1*%
%TO.N,GND*%
X91730000Y-83500000D03*
D11*
%TO.P,D2,2,A_2*%
%TO.N,TOUT*%
X94270000Y-83500000D03*
%TD*%
%TO.P,D9,2,A_2*%
%TO.N,TOUT*%
X155770000Y-101500000D03*
D10*
%TO.P,D9,1,K_1*%
%TO.N,GND*%
X153230000Y-101500000D03*
%TD*%
D11*
%TO.P,D10,2,A_2*%
%TO.N,TOUT*%
X163290000Y-130000000D03*
D10*
%TO.P,D10,1,K_1*%
%TO.N,GND*%
X160750000Y-130000000D03*
%TD*%
D11*
%TO.P,D8,2,A_2*%
%TO.N,TOUT*%
X180000000Y-83750000D03*
D10*
%TO.P,D8,1,K_1*%
%TO.N,GND*%
X177460000Y-83750000D03*
%TD*%
D13*
%TO.P,R2,3*%
%TO.N,N/C*%
X145500000Y-107670000D03*
%TO.P,R2,2*%
%TO.N,Net-(BT1--)*%
X148040000Y-110210000D03*
%TO.P,R2,1*%
%TO.N,Net-(U1-~{RST})*%
X145500000Y-112750000D03*
%TD*%
D14*
%TO.P,SW1,2,2_2*%
%TO.N,Net-(BT1--)*%
X137250000Y-89500000D03*
X130750000Y-89500000D03*
%TO.P,SW1,1,1_1*%
%TO.N,Net-(U1-VCC)*%
X137250000Y-85000000D03*
X130750000Y-85000000D03*
%TD*%
D15*
%TO.P,U1,8,VCC_8*%
%TO.N,Net-(U1-VCC)*%
X136725000Y-97595000D03*
%TO.P,U1,7,DISCH_7*%
%TO.N,Net-(BT1--)*%
X136725000Y-98865000D03*
%TO.P,U1,6,THRES_6*%
%TO.N,Net-(U1-THRES)*%
X136725000Y-100135000D03*
%TO.P,U1,5,CONT_5*%
%TO.N,unconnected-(U1-CONT-Pad5)*%
X136725000Y-101405000D03*
%TO.P,U1,4,~{RST}_4*%
%TO.N,Net-(U1-~{RST})*%
X131775000Y-101405000D03*
%TO.P,U1,3,OUT_3*%
%TO.N,Net-(U1-OUT)*%
X131775000Y-100135000D03*
%TO.P,U1,2,TRIG_2*%
%TO.N,Net-(U1-THRES)*%
X131775000Y-98865000D03*
%TO.P,U1,1,GND_1*%
%TO.N,GND*%
X131775000Y-97595000D03*
%TD*%
D11*
%TO.P,D5,2,A_2*%
%TO.N,TOUT*%
X136290000Y-116250000D03*
D10*
%TO.P,D5,1,K_1*%
%TO.N,GND*%
X133750000Y-116250000D03*
%TD*%
%TO.P,D6,1,K_1*%
%TO.N,GND*%
X132710000Y-51750000D03*
D11*
%TO.P,D6,2,A_2*%
%TO.N,TOUT*%
X135250000Y-51750000D03*
%TD*%
%TO.P,D3,2,A_2*%
%TO.N,TOUT*%
X116040000Y-98250000D03*
D10*
%TO.P,D3,1,K_1*%
%TO.N,GND*%
X113500000Y-98250000D03*
%TD*%
D11*
%TO.P,D7,2,A_2*%
%TO.N,TOUT*%
X149250000Y-80750000D03*
D10*
%TO.P,D7,1,K_1*%
%TO.N,GND*%
X146710000Y-80750000D03*
%TD*%
D12*
%TO.P,BT1,2,-_2*%
%TO.N,Net-(BT1--)*%
X125100000Y-105750000D03*
D16*
%TO.P,BT1,1,+_1*%
%TO.N,GND*%
X121500000Y-105750000D03*
%TD*%
D12*
%TO.P,C1,2*%
%TO.N,Net-(U1-THRES)*%
X123500000Y-115250000D03*
D16*
%TO.P,C1,1*%
%TO.N,GND*%
X121000000Y-115250000D03*
%TD*%
D10*
%TO.P,D1,1,K_1*%
%TO.N,GND*%
X120730000Y-81250000D03*
D11*
%TO.P,D1,2,A_2*%
%TO.N,TOUT*%
X123270000Y-81250000D03*
%TD*%
%TO.N,GND*%
D17*
X153230000Y-101500000D02*
X153250000Y-101500000D01*
X131775000Y-97595000D02*
X132375000Y-96995000D01*
X132375000Y-96995000D02*
X148725000Y-96995000D01*
X148725000Y-96995000D02*
X153230000Y-101500000D01*
%TO.N,Net-(U1-VCC)*%
X136725000Y-97595000D02*
X136725000Y-97525000D01*
X136725000Y-97525000D02*
X136855000Y-97395000D01*
X136855000Y-97395000D02*
X137250000Y-97395000D01*
%TO.N,Net-(BT1--)*%
X137250000Y-89500000D02*
X130750000Y-89500000D01*
%TO.N,Net-(U1-VCC)*%
X130750000Y-85000000D02*
X137250000Y-85000000D01*
%TO.N,TOUT*%
X123270000Y-81250000D02*
X144060000Y-81250000D01*
X144060000Y-81250000D02*
X154310000Y-91500000D01*
%TO.N,GND*%
X120730000Y-81250000D02*
X132710000Y-69270000D01*
X132710000Y-69270000D02*
X132710000Y-51750000D01*
%TO.N,TOUT*%
X149250000Y-80750000D02*
X135250000Y-66750000D01*
X135250000Y-66750000D02*
X135250000Y-51750000D01*
%TO.N,GND*%
X146710000Y-80750000D02*
X132710000Y-66750000D01*
X132710000Y-66750000D02*
X132710000Y-51750000D01*
X177460000Y-83750000D02*
X149710000Y-83750000D01*
X149710000Y-83750000D02*
X146710000Y-80750000D01*
%TO.N,TOUT*%
X180000000Y-83750000D02*
X177000000Y-80750000D01*
X177000000Y-80750000D02*
X149250000Y-80750000D01*
X180000000Y-83750000D02*
X178800000Y-84950000D01*
X178800000Y-84950000D02*
X176825686Y-84950000D01*
X176825686Y-84950000D02*
X160275686Y-101500000D01*
X160275686Y-101500000D02*
X155770000Y-101500000D01*
X155770000Y-101500000D02*
X155770000Y-122480000D01*
X155770000Y-122480000D02*
X163290000Y-130000000D01*
%TO.N,GND*%
X153230000Y-101500000D02*
X153230000Y-122480000D01*
X153230000Y-122480000D02*
X160750000Y-130000000D01*
X160750000Y-130000000D02*
X145800000Y-115050000D01*
X145800000Y-115050000D02*
X134950000Y-115050000D01*
X134950000Y-115050000D02*
X133750000Y-116250000D01*
%TO.N,TOUT*%
X136290000Y-116250000D02*
X135090000Y-117450000D01*
X135090000Y-117450000D02*
X120749571Y-117450000D01*
X120749571Y-117450000D02*
X119500000Y-116200429D01*
X119500000Y-116200429D02*
X119500000Y-105865256D01*
X119500000Y-105865256D02*
X128770256Y-96595000D01*
X128770256Y-96595000D02*
X150725000Y-96595000D01*
X150725000Y-96595000D02*
X154650000Y-100520000D01*
X154650000Y-100520000D02*
X154650000Y-121360000D01*
X154650000Y-121360000D02*
X163290000Y-130000000D01*
%TO.N,GND*%
X134950000Y-115050000D02*
X136787057Y-115050000D01*
X136787057Y-115050000D02*
X137490000Y-115752943D01*
X137490000Y-115752943D02*
X137490000Y-116747057D01*
X137490000Y-116747057D02*
X135472057Y-118765000D01*
X135472057Y-118765000D02*
X121197057Y-118765000D01*
X121197057Y-118765000D02*
X111262057Y-128700000D01*
X111262057Y-128700000D02*
X109425000Y-128700000D01*
X109425000Y-128700000D02*
X108225000Y-127500000D01*
%TO.N,Net-(U1-THRES)*%
X123500000Y-115250000D02*
X122400000Y-116350000D01*
X122400000Y-116350000D02*
X120215256Y-116350000D01*
X120215256Y-116350000D02*
X119900000Y-116034744D01*
X119900000Y-116034744D02*
X119900000Y-109394365D01*
X119900000Y-109394365D02*
X130429365Y-98865000D01*
X130429365Y-98865000D02*
X131775000Y-98865000D01*
%TO.N,TOUT*%
X134175000Y-118365000D02*
X136290000Y-116250000D01*
X116040000Y-98250000D02*
X116040000Y-122225000D01*
X116040000Y-122225000D02*
X110765000Y-127500000D01*
%TO.N,GND*%
X108225000Y-127500000D02*
X113500000Y-122225000D01*
X113500000Y-122225000D02*
X113500000Y-98250000D01*
%TO.N,TOUT*%
X123270000Y-81250000D02*
X121020000Y-83500000D01*
X121020000Y-83500000D02*
X94270000Y-83500000D01*
%TO.N,GND*%
X120730000Y-81250000D02*
X92727080Y-81250000D01*
X92727080Y-81250000D02*
X91730000Y-82247080D01*
X91730000Y-82247080D02*
X91730000Y-83500000D01*
X91730000Y-83500000D02*
X106480000Y-98250000D01*
X106480000Y-98250000D02*
X113500000Y-98250000D01*
%TO.N,TOUT*%
X94270000Y-83500000D02*
X101290000Y-83500000D01*
X101290000Y-83500000D02*
X116040000Y-98250000D01*
%TO.N,GND*%
X133750000Y-116250000D02*
X131650000Y-114150000D01*
X131650000Y-114150000D02*
X122100000Y-114150000D01*
X122100000Y-114150000D02*
X121000000Y-115250000D01*
X121500000Y-105750000D02*
X129655000Y-97595000D01*
X129655000Y-97595000D02*
X131775000Y-97595000D01*
%TO.N,Net-(BT1--)*%
X125100000Y-105750000D02*
X125100000Y-105124448D01*
X125100000Y-105124448D02*
X130759448Y-99465000D01*
X130759448Y-99465000D02*
X136125000Y-99465000D01*
X136125000Y-99465000D02*
X136725000Y-98865000D01*
X136725000Y-98865000D02*
X147885000Y-98865000D01*
X147885000Y-98865000D02*
X148040000Y-99020000D01*
X148040000Y-99020000D02*
X148040000Y-110210000D01*
%TO.N,Net-(U1-~{RST})*%
X131775000Y-101405000D02*
X134155000Y-101405000D01*
X134155000Y-101405000D02*
X145500000Y-112750000D01*
%TO.N,TOUT*%
X119900000Y-118365000D02*
X134175000Y-118365000D01*
X110765000Y-127500000D02*
X119900000Y-118365000D01*
%TD*%
M02*
