%TF.GenerationSoftware,KiCad,Pcbnew,10.0.2*%
%TF.CreationDate,2026-05-13T22:20:27-07:00*%
%TF.ProjectId,star,73746172-2e6b-4696-9361-645f70636258,rev?*%
%TF.SameCoordinates,Original*%
%TF.FileFunction,Legend,Top*%
%TF.FilePolarity,Positive*%
%FSLAX46Y46*%
G04 Gerber Fmt 4.6, Leading zero omitted, Abs format (unit mm)*
G04 Created by KiCad (PCBNEW 10.0.2) date 2026-05-13 22:20:27*
%MOMM*%
%LPD*%
G01*
G04 APERTURE LIST*
%ADD10C,0.150000*%
%ADD11C,0.120000*%
G04 APERTURE END LIST*
D10*
X108756905Y-123994819D02*
X108756905Y-122994819D01*
X108756905Y-122994819D02*
X108995000Y-122994819D01*
X108995000Y-122994819D02*
X109137857Y-123042438D01*
X109137857Y-123042438D02*
X109233095Y-123137676D01*
X109233095Y-123137676D02*
X109280714Y-123232914D01*
X109280714Y-123232914D02*
X109328333Y-123423390D01*
X109328333Y-123423390D02*
X109328333Y-123566247D01*
X109328333Y-123566247D02*
X109280714Y-123756723D01*
X109280714Y-123756723D02*
X109233095Y-123851961D01*
X109233095Y-123851961D02*
X109137857Y-123947200D01*
X109137857Y-123947200D02*
X108995000Y-123994819D01*
X108995000Y-123994819D02*
X108756905Y-123994819D01*
X110185476Y-123328152D02*
X110185476Y-123994819D01*
X109947381Y-122947200D02*
X109709286Y-123661485D01*
X109709286Y-123661485D02*
X110328333Y-123661485D01*
X150333333Y-89584819D02*
X150000000Y-89108628D01*
X149761905Y-89584819D02*
X149761905Y-88584819D01*
X149761905Y-88584819D02*
X150142857Y-88584819D01*
X150142857Y-88584819D02*
X150238095Y-88632438D01*
X150238095Y-88632438D02*
X150285714Y-88680057D01*
X150285714Y-88680057D02*
X150333333Y-88775295D01*
X150333333Y-88775295D02*
X150333333Y-88918152D01*
X150333333Y-88918152D02*
X150285714Y-89013390D01*
X150285714Y-89013390D02*
X150238095Y-89061009D01*
X150238095Y-89061009D02*
X150142857Y-89108628D01*
X150142857Y-89108628D02*
X149761905Y-89108628D01*
X151285714Y-89584819D02*
X150714286Y-89584819D01*
X151000000Y-89584819D02*
X151000000Y-88584819D01*
X151000000Y-88584819D02*
X150904762Y-88727676D01*
X150904762Y-88727676D02*
X150809524Y-88822914D01*
X150809524Y-88822914D02*
X150714286Y-88870533D01*
X92261905Y-79994819D02*
X92261905Y-78994819D01*
X92261905Y-78994819D02*
X92500000Y-78994819D01*
X92500000Y-78994819D02*
X92642857Y-79042438D01*
X92642857Y-79042438D02*
X92738095Y-79137676D01*
X92738095Y-79137676D02*
X92785714Y-79232914D01*
X92785714Y-79232914D02*
X92833333Y-79423390D01*
X92833333Y-79423390D02*
X92833333Y-79566247D01*
X92833333Y-79566247D02*
X92785714Y-79756723D01*
X92785714Y-79756723D02*
X92738095Y-79851961D01*
X92738095Y-79851961D02*
X92642857Y-79947200D01*
X92642857Y-79947200D02*
X92500000Y-79994819D01*
X92500000Y-79994819D02*
X92261905Y-79994819D01*
X93214286Y-79090057D02*
X93261905Y-79042438D01*
X93261905Y-79042438D02*
X93357143Y-78994819D01*
X93357143Y-78994819D02*
X93595238Y-78994819D01*
X93595238Y-78994819D02*
X93690476Y-79042438D01*
X93690476Y-79042438D02*
X93738095Y-79090057D01*
X93738095Y-79090057D02*
X93785714Y-79185295D01*
X93785714Y-79185295D02*
X93785714Y-79280533D01*
X93785714Y-79280533D02*
X93738095Y-79423390D01*
X93738095Y-79423390D02*
X93166667Y-79994819D01*
X93166667Y-79994819D02*
X93785714Y-79994819D01*
X153761905Y-97994819D02*
X153761905Y-96994819D01*
X153761905Y-96994819D02*
X154000000Y-96994819D01*
X154000000Y-96994819D02*
X154142857Y-97042438D01*
X154142857Y-97042438D02*
X154238095Y-97137676D01*
X154238095Y-97137676D02*
X154285714Y-97232914D01*
X154285714Y-97232914D02*
X154333333Y-97423390D01*
X154333333Y-97423390D02*
X154333333Y-97566247D01*
X154333333Y-97566247D02*
X154285714Y-97756723D01*
X154285714Y-97756723D02*
X154238095Y-97851961D01*
X154238095Y-97851961D02*
X154142857Y-97947200D01*
X154142857Y-97947200D02*
X154000000Y-97994819D01*
X154000000Y-97994819D02*
X153761905Y-97994819D01*
X154809524Y-97994819D02*
X155000000Y-97994819D01*
X155000000Y-97994819D02*
X155095238Y-97947200D01*
X155095238Y-97947200D02*
X155142857Y-97899580D01*
X155142857Y-97899580D02*
X155238095Y-97756723D01*
X155238095Y-97756723D02*
X155285714Y-97566247D01*
X155285714Y-97566247D02*
X155285714Y-97185295D01*
X155285714Y-97185295D02*
X155238095Y-97090057D01*
X155238095Y-97090057D02*
X155190476Y-97042438D01*
X155190476Y-97042438D02*
X155095238Y-96994819D01*
X155095238Y-96994819D02*
X154904762Y-96994819D01*
X154904762Y-96994819D02*
X154809524Y-97042438D01*
X154809524Y-97042438D02*
X154761905Y-97090057D01*
X154761905Y-97090057D02*
X154714286Y-97185295D01*
X154714286Y-97185295D02*
X154714286Y-97423390D01*
X154714286Y-97423390D02*
X154761905Y-97518628D01*
X154761905Y-97518628D02*
X154809524Y-97566247D01*
X154809524Y-97566247D02*
X154904762Y-97613866D01*
X154904762Y-97613866D02*
X155095238Y-97613866D01*
X155095238Y-97613866D02*
X155190476Y-97566247D01*
X155190476Y-97566247D02*
X155238095Y-97518628D01*
X155238095Y-97518628D02*
X155285714Y-97423390D01*
X160805714Y-126494819D02*
X160805714Y-125494819D01*
X160805714Y-125494819D02*
X161043809Y-125494819D01*
X161043809Y-125494819D02*
X161186666Y-125542438D01*
X161186666Y-125542438D02*
X161281904Y-125637676D01*
X161281904Y-125637676D02*
X161329523Y-125732914D01*
X161329523Y-125732914D02*
X161377142Y-125923390D01*
X161377142Y-125923390D02*
X161377142Y-126066247D01*
X161377142Y-126066247D02*
X161329523Y-126256723D01*
X161329523Y-126256723D02*
X161281904Y-126351961D01*
X161281904Y-126351961D02*
X161186666Y-126447200D01*
X161186666Y-126447200D02*
X161043809Y-126494819D01*
X161043809Y-126494819D02*
X160805714Y-126494819D01*
X162329523Y-126494819D02*
X161758095Y-126494819D01*
X162043809Y-126494819D02*
X162043809Y-125494819D01*
X162043809Y-125494819D02*
X161948571Y-125637676D01*
X161948571Y-125637676D02*
X161853333Y-125732914D01*
X161853333Y-125732914D02*
X161758095Y-125780533D01*
X162948571Y-125494819D02*
X163043809Y-125494819D01*
X163043809Y-125494819D02*
X163139047Y-125542438D01*
X163139047Y-125542438D02*
X163186666Y-125590057D01*
X163186666Y-125590057D02*
X163234285Y-125685295D01*
X163234285Y-125685295D02*
X163281904Y-125875771D01*
X163281904Y-125875771D02*
X163281904Y-126113866D01*
X163281904Y-126113866D02*
X163234285Y-126304342D01*
X163234285Y-126304342D02*
X163186666Y-126399580D01*
X163186666Y-126399580D02*
X163139047Y-126447200D01*
X163139047Y-126447200D02*
X163043809Y-126494819D01*
X163043809Y-126494819D02*
X162948571Y-126494819D01*
X162948571Y-126494819D02*
X162853333Y-126447200D01*
X162853333Y-126447200D02*
X162805714Y-126399580D01*
X162805714Y-126399580D02*
X162758095Y-126304342D01*
X162758095Y-126304342D02*
X162710476Y-126113866D01*
X162710476Y-126113866D02*
X162710476Y-125875771D01*
X162710476Y-125875771D02*
X162758095Y-125685295D01*
X162758095Y-125685295D02*
X162805714Y-125590057D01*
X162805714Y-125590057D02*
X162853333Y-125542438D01*
X162853333Y-125542438D02*
X162948571Y-125494819D01*
X177991905Y-80244819D02*
X177991905Y-79244819D01*
X177991905Y-79244819D02*
X178230000Y-79244819D01*
X178230000Y-79244819D02*
X178372857Y-79292438D01*
X178372857Y-79292438D02*
X178468095Y-79387676D01*
X178468095Y-79387676D02*
X178515714Y-79482914D01*
X178515714Y-79482914D02*
X178563333Y-79673390D01*
X178563333Y-79673390D02*
X178563333Y-79816247D01*
X178563333Y-79816247D02*
X178515714Y-80006723D01*
X178515714Y-80006723D02*
X178468095Y-80101961D01*
X178468095Y-80101961D02*
X178372857Y-80197200D01*
X178372857Y-80197200D02*
X178230000Y-80244819D01*
X178230000Y-80244819D02*
X177991905Y-80244819D01*
X179134762Y-79673390D02*
X179039524Y-79625771D01*
X179039524Y-79625771D02*
X178991905Y-79578152D01*
X178991905Y-79578152D02*
X178944286Y-79482914D01*
X178944286Y-79482914D02*
X178944286Y-79435295D01*
X178944286Y-79435295D02*
X178991905Y-79340057D01*
X178991905Y-79340057D02*
X179039524Y-79292438D01*
X179039524Y-79292438D02*
X179134762Y-79244819D01*
X179134762Y-79244819D02*
X179325238Y-79244819D01*
X179325238Y-79244819D02*
X179420476Y-79292438D01*
X179420476Y-79292438D02*
X179468095Y-79340057D01*
X179468095Y-79340057D02*
X179515714Y-79435295D01*
X179515714Y-79435295D02*
X179515714Y-79482914D01*
X179515714Y-79482914D02*
X179468095Y-79578152D01*
X179468095Y-79578152D02*
X179420476Y-79625771D01*
X179420476Y-79625771D02*
X179325238Y-79673390D01*
X179325238Y-79673390D02*
X179134762Y-79673390D01*
X179134762Y-79673390D02*
X179039524Y-79721009D01*
X179039524Y-79721009D02*
X178991905Y-79768628D01*
X178991905Y-79768628D02*
X178944286Y-79863866D01*
X178944286Y-79863866D02*
X178944286Y-80054342D01*
X178944286Y-80054342D02*
X178991905Y-80149580D01*
X178991905Y-80149580D02*
X179039524Y-80197200D01*
X179039524Y-80197200D02*
X179134762Y-80244819D01*
X179134762Y-80244819D02*
X179325238Y-80244819D01*
X179325238Y-80244819D02*
X179420476Y-80197200D01*
X179420476Y-80197200D02*
X179468095Y-80149580D01*
X179468095Y-80149580D02*
X179515714Y-80054342D01*
X179515714Y-80054342D02*
X179515714Y-79863866D01*
X179515714Y-79863866D02*
X179468095Y-79768628D01*
X179468095Y-79768628D02*
X179420476Y-79721009D01*
X179420476Y-79721009D02*
X179325238Y-79673390D01*
X145318333Y-104649819D02*
X144985000Y-104173628D01*
X144746905Y-104649819D02*
X144746905Y-103649819D01*
X144746905Y-103649819D02*
X145127857Y-103649819D01*
X145127857Y-103649819D02*
X145223095Y-103697438D01*
X145223095Y-103697438D02*
X145270714Y-103745057D01*
X145270714Y-103745057D02*
X145318333Y-103840295D01*
X145318333Y-103840295D02*
X145318333Y-103983152D01*
X145318333Y-103983152D02*
X145270714Y-104078390D01*
X145270714Y-104078390D02*
X145223095Y-104126009D01*
X145223095Y-104126009D02*
X145127857Y-104173628D01*
X145127857Y-104173628D02*
X144746905Y-104173628D01*
X145699286Y-103745057D02*
X145746905Y-103697438D01*
X145746905Y-103697438D02*
X145842143Y-103649819D01*
X145842143Y-103649819D02*
X146080238Y-103649819D01*
X146080238Y-103649819D02*
X146175476Y-103697438D01*
X146175476Y-103697438D02*
X146223095Y-103745057D01*
X146223095Y-103745057D02*
X146270714Y-103840295D01*
X146270714Y-103840295D02*
X146270714Y-103935533D01*
X146270714Y-103935533D02*
X146223095Y-104078390D01*
X146223095Y-104078390D02*
X145651667Y-104649819D01*
X145651667Y-104649819D02*
X146270714Y-104649819D01*
X132666667Y-83407200D02*
X132809524Y-83454819D01*
X132809524Y-83454819D02*
X133047619Y-83454819D01*
X133047619Y-83454819D02*
X133142857Y-83407200D01*
X133142857Y-83407200D02*
X133190476Y-83359580D01*
X133190476Y-83359580D02*
X133238095Y-83264342D01*
X133238095Y-83264342D02*
X133238095Y-83169104D01*
X133238095Y-83169104D02*
X133190476Y-83073866D01*
X133190476Y-83073866D02*
X133142857Y-83026247D01*
X133142857Y-83026247D02*
X133047619Y-82978628D01*
X133047619Y-82978628D02*
X132857143Y-82931009D01*
X132857143Y-82931009D02*
X132761905Y-82883390D01*
X132761905Y-82883390D02*
X132714286Y-82835771D01*
X132714286Y-82835771D02*
X132666667Y-82740533D01*
X132666667Y-82740533D02*
X132666667Y-82645295D01*
X132666667Y-82645295D02*
X132714286Y-82550057D01*
X132714286Y-82550057D02*
X132761905Y-82502438D01*
X132761905Y-82502438D02*
X132857143Y-82454819D01*
X132857143Y-82454819D02*
X133095238Y-82454819D01*
X133095238Y-82454819D02*
X133238095Y-82502438D01*
X133571429Y-82454819D02*
X133809524Y-83454819D01*
X133809524Y-83454819D02*
X134000000Y-82740533D01*
X134000000Y-82740533D02*
X134190476Y-83454819D01*
X134190476Y-83454819D02*
X134428572Y-82454819D01*
X135333333Y-83454819D02*
X134761905Y-83454819D01*
X135047619Y-83454819D02*
X135047619Y-82454819D01*
X135047619Y-82454819D02*
X134952381Y-82597676D01*
X134952381Y-82597676D02*
X134857143Y-82692914D01*
X134857143Y-82692914D02*
X134761905Y-82740533D01*
X133488095Y-95554819D02*
X133488095Y-96364342D01*
X133488095Y-96364342D02*
X133535714Y-96459580D01*
X133535714Y-96459580D02*
X133583333Y-96507200D01*
X133583333Y-96507200D02*
X133678571Y-96554819D01*
X133678571Y-96554819D02*
X133869047Y-96554819D01*
X133869047Y-96554819D02*
X133964285Y-96507200D01*
X133964285Y-96507200D02*
X134011904Y-96459580D01*
X134011904Y-96459580D02*
X134059523Y-96364342D01*
X134059523Y-96364342D02*
X134059523Y-95554819D01*
X135059523Y-96554819D02*
X134488095Y-96554819D01*
X134773809Y-96554819D02*
X134773809Y-95554819D01*
X134773809Y-95554819D02*
X134678571Y-95697676D01*
X134678571Y-95697676D02*
X134583333Y-95792914D01*
X134583333Y-95792914D02*
X134488095Y-95840533D01*
X134281905Y-112744819D02*
X134281905Y-111744819D01*
X134281905Y-111744819D02*
X134520000Y-111744819D01*
X134520000Y-111744819D02*
X134662857Y-111792438D01*
X134662857Y-111792438D02*
X134758095Y-111887676D01*
X134758095Y-111887676D02*
X134805714Y-111982914D01*
X134805714Y-111982914D02*
X134853333Y-112173390D01*
X134853333Y-112173390D02*
X134853333Y-112316247D01*
X134853333Y-112316247D02*
X134805714Y-112506723D01*
X134805714Y-112506723D02*
X134758095Y-112601961D01*
X134758095Y-112601961D02*
X134662857Y-112697200D01*
X134662857Y-112697200D02*
X134520000Y-112744819D01*
X134520000Y-112744819D02*
X134281905Y-112744819D01*
X135758095Y-111744819D02*
X135281905Y-111744819D01*
X135281905Y-111744819D02*
X135234286Y-112221009D01*
X135234286Y-112221009D02*
X135281905Y-112173390D01*
X135281905Y-112173390D02*
X135377143Y-112125771D01*
X135377143Y-112125771D02*
X135615238Y-112125771D01*
X135615238Y-112125771D02*
X135710476Y-112173390D01*
X135710476Y-112173390D02*
X135758095Y-112221009D01*
X135758095Y-112221009D02*
X135805714Y-112316247D01*
X135805714Y-112316247D02*
X135805714Y-112554342D01*
X135805714Y-112554342D02*
X135758095Y-112649580D01*
X135758095Y-112649580D02*
X135710476Y-112697200D01*
X135710476Y-112697200D02*
X135615238Y-112744819D01*
X135615238Y-112744819D02*
X135377143Y-112744819D01*
X135377143Y-112744819D02*
X135281905Y-112697200D01*
X135281905Y-112697200D02*
X135234286Y-112649580D01*
X133241905Y-48244819D02*
X133241905Y-47244819D01*
X133241905Y-47244819D02*
X133480000Y-47244819D01*
X133480000Y-47244819D02*
X133622857Y-47292438D01*
X133622857Y-47292438D02*
X133718095Y-47387676D01*
X133718095Y-47387676D02*
X133765714Y-47482914D01*
X133765714Y-47482914D02*
X133813333Y-47673390D01*
X133813333Y-47673390D02*
X133813333Y-47816247D01*
X133813333Y-47816247D02*
X133765714Y-48006723D01*
X133765714Y-48006723D02*
X133718095Y-48101961D01*
X133718095Y-48101961D02*
X133622857Y-48197200D01*
X133622857Y-48197200D02*
X133480000Y-48244819D01*
X133480000Y-48244819D02*
X133241905Y-48244819D01*
X134670476Y-47244819D02*
X134480000Y-47244819D01*
X134480000Y-47244819D02*
X134384762Y-47292438D01*
X134384762Y-47292438D02*
X134337143Y-47340057D01*
X134337143Y-47340057D02*
X134241905Y-47482914D01*
X134241905Y-47482914D02*
X134194286Y-47673390D01*
X134194286Y-47673390D02*
X134194286Y-48054342D01*
X134194286Y-48054342D02*
X134241905Y-48149580D01*
X134241905Y-48149580D02*
X134289524Y-48197200D01*
X134289524Y-48197200D02*
X134384762Y-48244819D01*
X134384762Y-48244819D02*
X134575238Y-48244819D01*
X134575238Y-48244819D02*
X134670476Y-48197200D01*
X134670476Y-48197200D02*
X134718095Y-48149580D01*
X134718095Y-48149580D02*
X134765714Y-48054342D01*
X134765714Y-48054342D02*
X134765714Y-47816247D01*
X134765714Y-47816247D02*
X134718095Y-47721009D01*
X134718095Y-47721009D02*
X134670476Y-47673390D01*
X134670476Y-47673390D02*
X134575238Y-47625771D01*
X134575238Y-47625771D02*
X134384762Y-47625771D01*
X134384762Y-47625771D02*
X134289524Y-47673390D01*
X134289524Y-47673390D02*
X134241905Y-47721009D01*
X134241905Y-47721009D02*
X134194286Y-47816247D01*
X114031905Y-94744819D02*
X114031905Y-93744819D01*
X114031905Y-93744819D02*
X114270000Y-93744819D01*
X114270000Y-93744819D02*
X114412857Y-93792438D01*
X114412857Y-93792438D02*
X114508095Y-93887676D01*
X114508095Y-93887676D02*
X114555714Y-93982914D01*
X114555714Y-93982914D02*
X114603333Y-94173390D01*
X114603333Y-94173390D02*
X114603333Y-94316247D01*
X114603333Y-94316247D02*
X114555714Y-94506723D01*
X114555714Y-94506723D02*
X114508095Y-94601961D01*
X114508095Y-94601961D02*
X114412857Y-94697200D01*
X114412857Y-94697200D02*
X114270000Y-94744819D01*
X114270000Y-94744819D02*
X114031905Y-94744819D01*
X114936667Y-93744819D02*
X115555714Y-93744819D01*
X115555714Y-93744819D02*
X115222381Y-94125771D01*
X115222381Y-94125771D02*
X115365238Y-94125771D01*
X115365238Y-94125771D02*
X115460476Y-94173390D01*
X115460476Y-94173390D02*
X115508095Y-94221009D01*
X115508095Y-94221009D02*
X115555714Y-94316247D01*
X115555714Y-94316247D02*
X115555714Y-94554342D01*
X115555714Y-94554342D02*
X115508095Y-94649580D01*
X115508095Y-94649580D02*
X115460476Y-94697200D01*
X115460476Y-94697200D02*
X115365238Y-94744819D01*
X115365238Y-94744819D02*
X115079524Y-94744819D01*
X115079524Y-94744819D02*
X114984286Y-94697200D01*
X114984286Y-94697200D02*
X114936667Y-94649580D01*
X147241905Y-77244819D02*
X147241905Y-76244819D01*
X147241905Y-76244819D02*
X147480000Y-76244819D01*
X147480000Y-76244819D02*
X147622857Y-76292438D01*
X147622857Y-76292438D02*
X147718095Y-76387676D01*
X147718095Y-76387676D02*
X147765714Y-76482914D01*
X147765714Y-76482914D02*
X147813333Y-76673390D01*
X147813333Y-76673390D02*
X147813333Y-76816247D01*
X147813333Y-76816247D02*
X147765714Y-77006723D01*
X147765714Y-77006723D02*
X147718095Y-77101961D01*
X147718095Y-77101961D02*
X147622857Y-77197200D01*
X147622857Y-77197200D02*
X147480000Y-77244819D01*
X147480000Y-77244819D02*
X147241905Y-77244819D01*
X148146667Y-76244819D02*
X148813333Y-76244819D01*
X148813333Y-76244819D02*
X148384762Y-77244819D01*
X122514285Y-103681009D02*
X122657142Y-103728628D01*
X122657142Y-103728628D02*
X122704761Y-103776247D01*
X122704761Y-103776247D02*
X122752380Y-103871485D01*
X122752380Y-103871485D02*
X122752380Y-104014342D01*
X122752380Y-104014342D02*
X122704761Y-104109580D01*
X122704761Y-104109580D02*
X122657142Y-104157200D01*
X122657142Y-104157200D02*
X122561904Y-104204819D01*
X122561904Y-104204819D02*
X122180952Y-104204819D01*
X122180952Y-104204819D02*
X122180952Y-103204819D01*
X122180952Y-103204819D02*
X122514285Y-103204819D01*
X122514285Y-103204819D02*
X122609523Y-103252438D01*
X122609523Y-103252438D02*
X122657142Y-103300057D01*
X122657142Y-103300057D02*
X122704761Y-103395295D01*
X122704761Y-103395295D02*
X122704761Y-103490533D01*
X122704761Y-103490533D02*
X122657142Y-103585771D01*
X122657142Y-103585771D02*
X122609523Y-103633390D01*
X122609523Y-103633390D02*
X122514285Y-103681009D01*
X122514285Y-103681009D02*
X122180952Y-103681009D01*
X123038095Y-103204819D02*
X123609523Y-103204819D01*
X123323809Y-104204819D02*
X123323809Y-103204819D01*
X124466666Y-104204819D02*
X123895238Y-104204819D01*
X124180952Y-104204819D02*
X124180952Y-103204819D01*
X124180952Y-103204819D02*
X124085714Y-103347676D01*
X124085714Y-103347676D02*
X123990476Y-103442914D01*
X123990476Y-103442914D02*
X123895238Y-103490533D01*
X122083333Y-111859580D02*
X122035714Y-111907200D01*
X122035714Y-111907200D02*
X121892857Y-111954819D01*
X121892857Y-111954819D02*
X121797619Y-111954819D01*
X121797619Y-111954819D02*
X121654762Y-111907200D01*
X121654762Y-111907200D02*
X121559524Y-111811961D01*
X121559524Y-111811961D02*
X121511905Y-111716723D01*
X121511905Y-111716723D02*
X121464286Y-111526247D01*
X121464286Y-111526247D02*
X121464286Y-111383390D01*
X121464286Y-111383390D02*
X121511905Y-111192914D01*
X121511905Y-111192914D02*
X121559524Y-111097676D01*
X121559524Y-111097676D02*
X121654762Y-111002438D01*
X121654762Y-111002438D02*
X121797619Y-110954819D01*
X121797619Y-110954819D02*
X121892857Y-110954819D01*
X121892857Y-110954819D02*
X122035714Y-111002438D01*
X122035714Y-111002438D02*
X122083333Y-111050057D01*
X123035714Y-111954819D02*
X122464286Y-111954819D01*
X122750000Y-111954819D02*
X122750000Y-110954819D01*
X122750000Y-110954819D02*
X122654762Y-111097676D01*
X122654762Y-111097676D02*
X122559524Y-111192914D01*
X122559524Y-111192914D02*
X122464286Y-111240533D01*
X121261905Y-77744819D02*
X121261905Y-76744819D01*
X121261905Y-76744819D02*
X121500000Y-76744819D01*
X121500000Y-76744819D02*
X121642857Y-76792438D01*
X121642857Y-76792438D02*
X121738095Y-76887676D01*
X121738095Y-76887676D02*
X121785714Y-76982914D01*
X121785714Y-76982914D02*
X121833333Y-77173390D01*
X121833333Y-77173390D02*
X121833333Y-77316247D01*
X121833333Y-77316247D02*
X121785714Y-77506723D01*
X121785714Y-77506723D02*
X121738095Y-77601961D01*
X121738095Y-77601961D02*
X121642857Y-77697200D01*
X121642857Y-77697200D02*
X121500000Y-77744819D01*
X121500000Y-77744819D02*
X121261905Y-77744819D01*
X122785714Y-77744819D02*
X122214286Y-77744819D01*
X122500000Y-77744819D02*
X122500000Y-76744819D01*
X122500000Y-76744819D02*
X122404762Y-76887676D01*
X122404762Y-76887676D02*
X122309524Y-76982914D01*
X122309524Y-76982914D02*
X122214286Y-77030533D01*
%TO.C,D4*%
D11*
X106935000Y-125955000D02*
X106935000Y-129045000D01*
X106935000Y-125955170D02*
G75*
G02*
X112485000Y-127500000I2560000J-1544830D01*
G01*
X112485000Y-127500000D02*
G75*
G02*
X106935000Y-129044830I-2990000J0D01*
G01*
X111995000Y-127500000D02*
G75*
G02*
X106995000Y-127500000I-2500000J0D01*
G01*
X106995000Y-127500000D02*
G75*
G02*
X111995000Y-127500000I2500000J0D01*
G01*
%TO.C,R1*%
X147230000Y-90130000D02*
X153770000Y-90130000D01*
X147230000Y-90460000D02*
X147230000Y-90130000D01*
X147230000Y-92540000D02*
X147230000Y-92870000D01*
X147230000Y-92870000D02*
X153770000Y-92870000D01*
X153770000Y-90130000D02*
X153770000Y-90460000D01*
X153770000Y-92870000D02*
X153770000Y-92540000D01*
%TO.C,D2*%
X90440000Y-81955000D02*
X90440000Y-85045000D01*
X90440000Y-81955170D02*
G75*
G02*
X95990000Y-83500000I2560000J-1544830D01*
G01*
X95990000Y-83500000D02*
G75*
G02*
X90440000Y-85044830I-2990000J0D01*
G01*
X95500000Y-83500000D02*
G75*
G02*
X90500000Y-83500000I-2500000J0D01*
G01*
X90500000Y-83500000D02*
G75*
G02*
X95500000Y-83500000I2500000J0D01*
G01*
%TO.C,D9*%
X157000000Y-101500000D02*
G75*
G02*
X152000000Y-101500000I-2500000J0D01*
G01*
X152000000Y-101500000D02*
G75*
G02*
X157000000Y-101500000I2500000J0D01*
G01*
X157490000Y-101500000D02*
G75*
G02*
X151940000Y-103044830I-2990000J0D01*
G01*
X151940000Y-99955170D02*
G75*
G02*
X157490000Y-101500000I2560000J-1544830D01*
G01*
X151940000Y-99955000D02*
X151940000Y-103045000D01*
%TO.C,D10*%
X164520000Y-130000000D02*
G75*
G02*
X159520000Y-130000000I-2500000J0D01*
G01*
X159520000Y-130000000D02*
G75*
G02*
X164520000Y-130000000I2500000J0D01*
G01*
X165010000Y-130000000D02*
G75*
G02*
X159460000Y-131544830I-2990000J0D01*
G01*
X159460000Y-128455170D02*
G75*
G02*
X165010000Y-130000000I2560000J-1544830D01*
G01*
X159460000Y-128455000D02*
X159460000Y-131545000D01*
%TO.C,D8*%
X181230000Y-83750000D02*
G75*
G02*
X176230000Y-83750000I-2500000J0D01*
G01*
X176230000Y-83750000D02*
G75*
G02*
X181230000Y-83750000I2500000J0D01*
G01*
X181720000Y-83750000D02*
G75*
G02*
X176170000Y-85294830I-2990000J0D01*
G01*
X176170000Y-82205170D02*
G75*
G02*
X181720000Y-83750000I2560000J-1544830D01*
G01*
X176170000Y-82205000D02*
X176170000Y-85295000D01*
%TO.C,R2*%
X150360000Y-115085000D02*
X140610000Y-115085000D01*
X150360000Y-105335000D02*
X150360000Y-115085000D01*
X140610000Y-115085000D02*
X140610000Y-105335000D01*
X140610000Y-105335000D02*
X150360000Y-105335000D01*
%TO.C,SW1*%
X137500000Y-88000000D02*
X137500000Y-86500000D01*
X136250000Y-84000000D02*
X131750000Y-84000000D01*
X131750000Y-90500000D02*
X136250000Y-90500000D01*
X130500000Y-86500000D02*
X130500000Y-88000000D01*
%TO.C,U1*%
X131650000Y-97030000D02*
X131410000Y-96700000D01*
X131890000Y-96700000D01*
X131650000Y-97030000D01*
G36*
X131650000Y-97030000D02*
G01*
X131410000Y-96700000D01*
X131890000Y-96700000D01*
X131650000Y-97030000D01*
G37*
X136310000Y-102060000D02*
X132190000Y-102060000D01*
X136310000Y-101965000D02*
X136310000Y-102060000D01*
X136310000Y-96940000D02*
X136310000Y-97035000D01*
X132190000Y-102060000D02*
X132190000Y-101965000D01*
X132190000Y-97035000D02*
X132190000Y-96940000D01*
X132190000Y-96940000D02*
X136310000Y-96940000D01*
%TO.C,D5*%
X137520000Y-116250000D02*
G75*
G02*
X132520000Y-116250000I-2500000J0D01*
G01*
X132520000Y-116250000D02*
G75*
G02*
X137520000Y-116250000I2500000J0D01*
G01*
X138010000Y-116250000D02*
G75*
G02*
X132460000Y-117794830I-2990000J0D01*
G01*
X132460000Y-114705170D02*
G75*
G02*
X138010000Y-116250000I2560000J-1544830D01*
G01*
X132460000Y-114705000D02*
X132460000Y-117795000D01*
%TO.C,D6*%
X131420000Y-50205000D02*
X131420000Y-53295000D01*
X131420000Y-50205170D02*
G75*
G02*
X136970000Y-51750000I2560000J-1544830D01*
G01*
X136970000Y-51750000D02*
G75*
G02*
X131420000Y-53294830I-2990000J0D01*
G01*
X136480000Y-51750000D02*
G75*
G02*
X131480000Y-51750000I-2500000J0D01*
G01*
X131480000Y-51750000D02*
G75*
G02*
X136480000Y-51750000I2500000J0D01*
G01*
%TO.C,D3*%
X117270000Y-98250000D02*
G75*
G02*
X112270000Y-98250000I-2500000J0D01*
G01*
X112270000Y-98250000D02*
G75*
G02*
X117270000Y-98250000I2500000J0D01*
G01*
X117760000Y-98250000D02*
G75*
G02*
X112210000Y-99794830I-2990000J0D01*
G01*
X112210000Y-96705170D02*
G75*
G02*
X117760000Y-98250000I2560000J-1544830D01*
G01*
X112210000Y-96705000D02*
X112210000Y-99795000D01*
%TO.C,D7*%
X150480000Y-80750000D02*
G75*
G02*
X145480000Y-80750000I-2500000J0D01*
G01*
X145480000Y-80750000D02*
G75*
G02*
X150480000Y-80750000I2500000J0D01*
G01*
X150970000Y-80750000D02*
G75*
G02*
X145420000Y-82294830I-2990000J0D01*
G01*
X145420000Y-79205170D02*
G75*
G02*
X150970000Y-80750000I2560000J-1544830D01*
G01*
X145420000Y-79205000D02*
X145420000Y-82295000D01*
%TO.C,C1*%
X124870000Y-115250000D02*
G75*
G02*
X119630000Y-115250000I-2620000J0D01*
G01*
X119630000Y-115250000D02*
G75*
G02*
X124870000Y-115250000I2620000J0D01*
G01*
X124850000Y-114967000D02*
X124850000Y-115533000D01*
X124810000Y-114733000D02*
X124810000Y-115767000D01*
X124770000Y-114573000D02*
X124770000Y-115927000D01*
X124730000Y-114445000D02*
X124730000Y-116055000D01*
X124690000Y-114336000D02*
X124690000Y-116164000D01*
X124650000Y-114239000D02*
X124650000Y-116261000D01*
X124610000Y-114152000D02*
X124610000Y-116348000D01*
X124570000Y-114073000D02*
X124570000Y-116427000D01*
X124530000Y-116290000D02*
X124530000Y-116501000D01*
X124530000Y-113999000D02*
X124530000Y-114210000D01*
X124490000Y-116290000D02*
X124490000Y-116569000D01*
X124490000Y-113931000D02*
X124490000Y-114210000D01*
X124450000Y-116290000D02*
X124450000Y-116633000D01*
X124450000Y-113867000D02*
X124450000Y-114210000D01*
X124410000Y-116290000D02*
X124410000Y-116693000D01*
X124410000Y-113807000D02*
X124410000Y-114210000D01*
X124370000Y-116290000D02*
X124370000Y-116749000D01*
X124370000Y-113751000D02*
X124370000Y-114210000D01*
X124330000Y-116290000D02*
X124330000Y-116803000D01*
X124330000Y-113697000D02*
X124330000Y-114210000D01*
X124290000Y-116290000D02*
X124290000Y-116854000D01*
X124290000Y-113646000D02*
X124290000Y-114210000D01*
X124250000Y-116290000D02*
X124250000Y-116902000D01*
X124250000Y-113598000D02*
X124250000Y-114210000D01*
X124210000Y-116290000D02*
X124210000Y-116949000D01*
X124210000Y-113551000D02*
X124210000Y-114210000D01*
X124170000Y-116290000D02*
X124170000Y-116993000D01*
X124170000Y-113507000D02*
X124170000Y-114210000D01*
X124130000Y-116290000D02*
X124130000Y-117035000D01*
X124130000Y-113465000D02*
X124130000Y-114210000D01*
X124090000Y-116290000D02*
X124090000Y-117075000D01*
X124090000Y-113425000D02*
X124090000Y-114210000D01*
X124050000Y-116290000D02*
X124050000Y-117114000D01*
X124050000Y-113386000D02*
X124050000Y-114210000D01*
X124010000Y-116290000D02*
X124010000Y-117151000D01*
X124010000Y-113349000D02*
X124010000Y-114210000D01*
X123970000Y-116290000D02*
X123970000Y-117186000D01*
X123970000Y-113314000D02*
X123970000Y-114210000D01*
X123930000Y-116290000D02*
X123930000Y-117220000D01*
X123930000Y-113280000D02*
X123930000Y-114210000D01*
X123890000Y-116290000D02*
X123890000Y-117253000D01*
X123890000Y-113247000D02*
X123890000Y-114210000D01*
X123850000Y-116290000D02*
X123850000Y-117285000D01*
X123850000Y-113215000D02*
X123850000Y-114210000D01*
X123810000Y-116290000D02*
X123810000Y-117315000D01*
X123810000Y-113185000D02*
X123810000Y-114210000D01*
X123770000Y-116290000D02*
X123770000Y-117344000D01*
X123770000Y-113156000D02*
X123770000Y-114210000D01*
X123730000Y-116290000D02*
X123730000Y-117372000D01*
X123730000Y-113128000D02*
X123730000Y-114210000D01*
X123690000Y-116290000D02*
X123690000Y-117399000D01*
X123690000Y-113101000D02*
X123690000Y-114210000D01*
X123650000Y-116290000D02*
X123650000Y-117425000D01*
X123650000Y-113075000D02*
X123650000Y-114210000D01*
X123610000Y-116290000D02*
X123610000Y-117449000D01*
X123610000Y-113051000D02*
X123610000Y-114210000D01*
X123570000Y-116290000D02*
X123570000Y-117473000D01*
X123570000Y-113027000D02*
X123570000Y-114210000D01*
X123530000Y-116290000D02*
X123530000Y-117496000D01*
X123530000Y-113004000D02*
X123530000Y-114210000D01*
X123490000Y-116290000D02*
X123490000Y-117518000D01*
X123490000Y-112982000D02*
X123490000Y-114210000D01*
X123450000Y-116290000D02*
X123450000Y-117539000D01*
X123450000Y-112961000D02*
X123450000Y-114210000D01*
X123410000Y-116290000D02*
X123410000Y-117559000D01*
X123410000Y-112941000D02*
X123410000Y-114210000D01*
X123370000Y-116290000D02*
X123370000Y-117579000D01*
X123370000Y-112921000D02*
X123370000Y-114210000D01*
X123330000Y-116290000D02*
X123330000Y-117597000D01*
X123330000Y-112903000D02*
X123330000Y-114210000D01*
X123290000Y-116290000D02*
X123290000Y-117615000D01*
X123290000Y-112885000D02*
X123290000Y-114210000D01*
X123250000Y-116290000D02*
X123250000Y-117632000D01*
X123250000Y-112868000D02*
X123250000Y-114210000D01*
X123210000Y-116290000D02*
X123210000Y-117648000D01*
X123210000Y-112852000D02*
X123210000Y-114210000D01*
X123170000Y-116290000D02*
X123170000Y-117663000D01*
X123170000Y-112837000D02*
X123170000Y-114210000D01*
X123130000Y-116290000D02*
X123130000Y-117678000D01*
X123130000Y-112822000D02*
X123130000Y-114210000D01*
X123090000Y-116290000D02*
X123090000Y-117692000D01*
X123090000Y-112808000D02*
X123090000Y-114210000D01*
X123050000Y-116290000D02*
X123050000Y-117705000D01*
X123050000Y-112795000D02*
X123050000Y-114210000D01*
X123010000Y-116290000D02*
X123010000Y-117717000D01*
X123010000Y-112783000D02*
X123010000Y-114210000D01*
X122970000Y-116290000D02*
X122970000Y-117729000D01*
X122970000Y-112771000D02*
X122970000Y-114210000D01*
X122930000Y-116290000D02*
X122930000Y-117740000D01*
X122930000Y-112760000D02*
X122930000Y-114210000D01*
X122890000Y-116290000D02*
X122890000Y-117751000D01*
X122890000Y-112749000D02*
X122890000Y-114210000D01*
X122850000Y-116290000D02*
X122850000Y-117760000D01*
X122850000Y-112740000D02*
X122850000Y-114210000D01*
X122810000Y-116290000D02*
X122810000Y-117769000D01*
X122810000Y-112731000D02*
X122810000Y-114210000D01*
X122770000Y-116290000D02*
X122770000Y-117778000D01*
X122770000Y-112722000D02*
X122770000Y-114210000D01*
X122730000Y-116290000D02*
X122730000Y-117786000D01*
X122730000Y-112714000D02*
X122730000Y-114210000D01*
X122690000Y-116290000D02*
X122690000Y-117793000D01*
X122690000Y-112707000D02*
X122690000Y-114210000D01*
X122650000Y-116290000D02*
X122650000Y-117799000D01*
X122650000Y-112701000D02*
X122650000Y-114210000D01*
X122610000Y-116290000D02*
X122610000Y-117805000D01*
X122610000Y-112695000D02*
X122610000Y-114210000D01*
X122570000Y-116290000D02*
X122570000Y-117810000D01*
X122570000Y-112690000D02*
X122570000Y-114210000D01*
X122530000Y-116290000D02*
X122530000Y-117815000D01*
X122530000Y-112685000D02*
X122530000Y-114210000D01*
X122490000Y-116290000D02*
X122490000Y-117819000D01*
X122490000Y-112681000D02*
X122490000Y-114210000D01*
X122450000Y-112678000D02*
X122450000Y-117822000D01*
X122410000Y-112675000D02*
X122410000Y-117825000D01*
X122370000Y-112673000D02*
X122370000Y-117827000D01*
X122330000Y-112671000D02*
X122330000Y-117829000D01*
X122290000Y-112670000D02*
X122290000Y-117830000D01*
X122250000Y-112670000D02*
X122250000Y-117830000D01*
X119695225Y-113525000D02*
X119695225Y-114025000D01*
X119445225Y-113775000D02*
X119945225Y-113775000D01*
%TO.C,D1*%
X119440000Y-79705000D02*
X119440000Y-82795000D01*
X119440000Y-79705170D02*
G75*
G02*
X124990000Y-81250000I2560000J-1544830D01*
G01*
X124990000Y-81250000D02*
G75*
G02*
X119440000Y-82794830I-2990000J0D01*
G01*
X124500000Y-81250000D02*
G75*
G02*
X119500000Y-81250000I-2500000J0D01*
G01*
X119500000Y-81250000D02*
G75*
G02*
X124500000Y-81250000I2500000J0D01*
G01*
%TD*%
M02*
